<mxfile host="Electron" modified="2024-01-08T19:57:53.992Z" agent="Mozilla/5.0 (Windows NT 10.0; Win64; x64) AppleWebKit/537.36 (KHTML, like Gecko) draw.io/21.7.5 Chrome/114.0.5735.289 Electron/25.8.1 Safari/537.36" etag="KogvbzMAskyIT_gC8rhh" version="21.7.5" type="device">
  <diagram id="K2p_E2ectr_lTOaGmKjB" name="Page-1">
    <mxGraphModel dx="2160" dy="1270" grid="1" gridSize="10" guides="1" tooltips="1" connect="1" arrows="1" fold="1" page="1" pageScale="1" pageWidth="1654" pageHeight="1169" math="0" shadow="0">
      <root>
        <mxCell id="0" />
        <mxCell id="1" parent="0" />
        <mxCell id="280QO5dsCk9HiFMDT0Kk-80" value="&lt;font face=&quot;Comic Sans MS&quot; style=&quot;font-size: 16px&quot;&gt;&lt;b&gt;EC2 instance contents&lt;/b&gt;&lt;/font&gt;" style="points=[[0,0],[0.25,0],[0.5,0],[0.75,0],[1,0],[1,0.25],[1,0.5],[1,0.75],[1,1],[0.75,1],[0.5,1],[0.25,1],[0,1],[0,0.75],[0,0.5],[0,0.25]];outlineConnect=0;gradientColor=none;html=1;whiteSpace=wrap;fontSize=12;fontStyle=0;shape=mxgraph.aws4.group;grIcon=mxgraph.aws4.group_ec2_instance_contents;strokeColor=#D86613;fillColor=none;verticalAlign=top;align=left;spacingLeft=30;fontColor=#D86613;dashed=0;" parent="1" vertex="1">
          <mxGeometry x="214" y="418" width="1440" height="470" as="geometry" />
        </mxCell>
        <mxCell id="280QO5dsCk9HiFMDT0Kk-86" value="" style="fillColor=none;strokeColor=#5A6C86;dashed=1;verticalAlign=top;fontStyle=0;fontColor=#5A6C86;" parent="1" vertex="1">
          <mxGeometry x="240" y="578" width="1369" height="270" as="geometry" />
        </mxCell>
        <mxCell id="ThuujIJxyk_KjAQ5E6HR-2" value="&lt;font face=&quot;Comic Sans MS&quot; style=&quot;font-size: 16px&quot;&gt;&lt;b&gt;AWS RDS&lt;/b&gt;&lt;/font&gt;" style="points=[[0,0,0],[0.25,0,0],[0.5,0,0],[0.75,0,0],[1,0,0],[0,1,0],[0.25,1,0],[0.5,1,0],[0.75,1,0],[1,1,0],[0,0.25,0],[0,0.5,0],[0,0.75,0],[1,0.25,0],[1,0.5,0],[1,0.75,0]];outlineConnect=0;fontColor=#232F3E;gradientColor=#4D72F3;gradientDirection=north;fillColor=#3334B9;strokeColor=#ffffff;dashed=0;verticalLabelPosition=bottom;verticalAlign=top;align=center;html=1;fontSize=12;fontStyle=0;aspect=fixed;shape=mxgraph.aws4.resourceIcon;resIcon=mxgraph.aws4.rds;" parent="1" vertex="1">
          <mxGeometry x="770" y="160" width="78" height="78" as="geometry" />
        </mxCell>
        <mxCell id="ThuujIJxyk_KjAQ5E6HR-5" value="&lt;font face=&quot;Comic Sans MS&quot; style=&quot;font-size: 16px&quot;&gt;&lt;b&gt;&amp;nbsp; MySQL Database&lt;/b&gt;&lt;/font&gt;" style="outlineConnect=0;fontColor=#232F3E;gradientColor=none;fillColor=#232F3E;strokeColor=none;dashed=0;verticalLabelPosition=bottom;verticalAlign=top;align=center;html=1;fontSize=12;fontStyle=0;aspect=fixed;pointerEvents=1;shape=mxgraph.aws4.generic_database;" parent="1" vertex="1">
          <mxGeometry x="779.5" y="270" width="59" height="78" as="geometry" />
        </mxCell>
        <mxCell id="ThuujIJxyk_KjAQ5E6HR-9" value="&lt;b style=&quot;font-family: &amp;#34;comic sans ms&amp;#34; ; font-size: 16px&quot;&gt;AWS S3&lt;/b&gt;" style="points=[[0,0,0],[0.25,0,0],[0.5,0,0],[0.75,0,0],[1,0,0],[0,1,0],[0.25,1,0],[0.5,1,0],[0.75,1,0],[1,1,0],[0,0.25,0],[0,0.5,0],[0,0.75,0],[1,0.25,0],[1,0.5,0],[1,0.75,0]];outlineConnect=0;fontColor=#232F3E;gradientColor=#60A337;gradientDirection=north;fillColor=#277116;strokeColor=#ffffff;dashed=0;verticalLabelPosition=bottom;verticalAlign=top;align=center;html=1;fontSize=12;fontStyle=0;aspect=fixed;shape=mxgraph.aws4.resourceIcon;resIcon=mxgraph.aws4.s3;" parent="1" vertex="1">
          <mxGeometry x="770" y="990" width="78" height="78" as="geometry" />
        </mxCell>
        <mxCell id="ThuujIJxyk_KjAQ5E6HR-32" value="" style="shape=image;verticalLabelPosition=bottom;labelBackgroundColor=#ffffff;verticalAlign=top;aspect=fixed;imageAspect=0;image=data:image/svg+xml,PHN2ZyB4bWxucz0iaHR0cDovL3d3dy53My5vcmcvMjAwMC9zdmciIHZpZXdCb3g9IjMuNzQxMzc1MjA3OTAxMDAxIDEuOTk5OTk5ODgwNzkwNzEwNCAyNC41MjA2Nzc1NjY1MjgzMiAyNy45OTcxNDQ2OTkwOTY2OCIgd2lkdGg9IjI0LjUyMDY3NzU2NjUyODMyIiBoZWlnaHQ9IjI3Ljk5NzE0NDY5OTA5NjY4Ij48cGF0aCBkPSJtMTUuOTQ4IDJoLjA2NWExMC40MTggMTAuNDE4IDAgMCAxIC45NzIuNTI4cTUuNDI5IDMuMTIyIDEwLjg1OCA2LjI0NmEuNzkyLjc5MiAwIDAgMSAuNDE0Ljc4OGMtLjAwOCA0LjM4OSAwIDguNzc3LS4wMDUgMTMuMTY0YS44MTMuODEzIDAgMCAxIC0uMzU2LjUwN3EtNS43NzMgMy4zMjQtMTEuNTQ3IDYuNjQ0YS41ODcuNTg3IDAgMCAxIC0uNjU3LjAzN3EtNS43OC0zLjMxNC0xMS41NDktNi42NGEuNy43IDAgMCAxIC0uNC0uNjY2cTAtNi41ODIgMC0xMy4xNjNhLjY5My42OTMgMCAwIDEgLjM4Ny0uNjdxNS40MjItMy4xMTggMTAuODQ0LTYuMjRjLjMyMi0uMTg0LjYzOC0uMzc5Ljk3NC0uNTM1IiBmaWxsPSIjMDE5NjM5Ii8+PHBhdGggZD0ibTguNzY3IDEwLjUzOHEwIDUuNDI5IDAgMTAuODU5YTEuNTA5IDEuNTA5IDAgMCAwIC40MjcgMS4wODcgMS42NDcgMS42NDcgMCAwIDAgMi4wNi4yMDYgMS41NjQgMS41NjQgMCAwIDAgLjY4NS0xLjI5M2MwLTIuNjItLjAwNS01LjI0IDAtNy44NnEzLjU4MyA0LjI5IDcuMTgxIDguNTY4YTIuODMzIDIuODMzIDAgMCAwIDIuNi43ODIgMS41NjEgMS41NjEgMCAwIDAgMS4yNTEtMS4zNzFxLjAwOC01LjU0MSAwLTExLjA4MWExLjU4MiAxLjU4MiAwIDAgMCAtMy4xNTIgMGMwIDIuNjYyLS4wMTYgNS4zMjEgMCA3Ljk4Mi0yLjM0Ni0yLjc2Ni00LjY2My01LjU1Ni03LTguMzMyYTIuODE3IDIuODE3IDAgMCAwIC0yLjY0OS0xLjA1MiAxLjU3OSAxLjU3OSAwIDAgMCAtMS40MDMgMS41MDV6IiBmaWxsPSIjZmZmIi8+PC9zdmc+;" parent="1" vertex="1">
          <mxGeometry x="1128.86" y="726.49" width="56.27" height="63.02" as="geometry" />
        </mxCell>
        <mxCell id="ThuujIJxyk_KjAQ5E6HR-34" value="&lt;font color=&quot;#232f3e&quot; face=&quot;Comic Sans MS&quot;&gt;&lt;span style=&quot;font-size: 16px&quot;&gt;&lt;b&gt;NGINX&lt;/b&gt;&lt;/span&gt;&lt;/font&gt;" style="text;html=1;align=center;verticalAlign=middle;resizable=0;points=[];autosize=1;strokeColor=none;" parent="1" vertex="1">
          <mxGeometry x="1122" y="789.5100000000002" width="70" height="20" as="geometry" />
        </mxCell>
        <mxCell id="280QO5dsCk9HiFMDT0Kk-6" value="" style="shape=image;verticalLabelPosition=bottom;labelBackgroundColor=#ffffff;verticalAlign=top;aspect=fixed;imageAspect=0;image=https://scontent.fjrs4-1.fna.fbcdn.net/v/t1.15752-9/414594352_386120213826488_5213363340233454227_n.png?_nc_cat=100&amp;ccb=1-7&amp;_nc_sid=8cd0a2&amp;_nc_ohc=7BPYB-iTChEAX9WmZmI&amp;_nc_ht=scontent.fjrs4-1.fna&amp;oh=03_AdSVYkcT3MSwxGIpYWPaIGWnKwmzUyNukFeIcmTEkW6EvA&amp;oe=65C3A0A0;" parent="1" vertex="1">
          <mxGeometry x="249" y="458" width="95.58" height="116.25" as="geometry" />
        </mxCell>
        <mxCell id="280QO5dsCk9HiFMDT0Kk-15" value="" style="aspect=fixed;html=1;points=[];align=center;image;fontSize=12;image=img/lib/mscae/Docker.svg;" parent="1" vertex="1">
          <mxGeometry x="1112" y="608" width="91.46" height="75" as="geometry" />
        </mxCell>
        <mxCell id="280QO5dsCk9HiFMDT0Kk-16" value="&lt;font face=&quot;Comic Sans MS&quot;&gt;&lt;span style=&quot;font-size: 18px&quot;&gt;&lt;b&gt;Backend Server&lt;/b&gt;&lt;/span&gt;&lt;/font&gt;" style="points=[[0,0],[0.25,0],[0.5,0],[0.75,0],[1,0],[1,0.25],[1,0.5],[1,0.75],[1,1],[0.75,1],[0.5,1],[0.25,1],[0,1],[0,0.75],[0,0.5],[0,0.25]];outlineConnect=0;gradientColor=none;html=1;whiteSpace=wrap;fontSize=16;fontStyle=0;shape=mxgraph.aws4.group;grIcon=mxgraph.aws4.group_on_premise;strokeColor=#5A6C86;fillColor=none;verticalAlign=top;align=left;spacingLeft=30;fontColor=#5A6C86;dashed=0;" parent="1" vertex="1">
          <mxGeometry x="1112" y="688" width="487" height="130" as="geometry" />
        </mxCell>
        <mxCell id="280QO5dsCk9HiFMDT0Kk-26" value="" style="shape=image;verticalLabelPosition=bottom;labelBackgroundColor=#ffffff;verticalAlign=top;aspect=fixed;imageAspect=0;image=https://scontent.fjrs4-1.fna.fbcdn.net/v/t1.15752-9/414510619_2529180610577428_1477236704667933988_n.png?_nc_cat=105&amp;ccb=1-7&amp;_nc_sid=8cd0a2&amp;_nc_ohc=Jhg8gtCNc-AAX9JH8Pd&amp;_nc_ht=scontent.fjrs4-1.fna&amp;oh=03_AdRYTAvDuk65V-RimkVixrOShBAlVFy2Ob1ioCF5pau4Uw&amp;oe=65C39602;" parent="1" vertex="1">
          <mxGeometry x="1232" y="741.63" width="173.27" height="37.99" as="geometry" />
        </mxCell>
        <mxCell id="280QO5dsCk9HiFMDT0Kk-30" value="" style="edgeStyle=orthogonalEdgeStyle;html=1;endArrow=block;elbow=vertical;startArrow=block;startFill=1;endFill=1;strokeColor=#545B64;rounded=0;" parent="1" edge="1">
          <mxGeometry width="100" relative="1" as="geometry">
            <mxPoint x="1192" y="761.62" as="sourcePoint" />
            <mxPoint x="1222" y="761.62" as="targetPoint" />
            <Array as="points" />
          </mxGeometry>
        </mxCell>
        <mxCell id="280QO5dsCk9HiFMDT0Kk-36" value="" style="edgeStyle=orthogonalEdgeStyle;html=1;endArrow=block;elbow=vertical;startArrow=block;startFill=1;endFill=1;strokeColor=#545B64;rounded=0;" parent="1" edge="1">
          <mxGeometry width="100" relative="1" as="geometry">
            <mxPoint x="1415.27" y="761.62" as="sourcePoint" />
            <mxPoint x="1455.27" y="761.62" as="targetPoint" />
            <Array as="points">
              <mxPoint x="1445.27" y="761.62" />
              <mxPoint x="1445.27" y="761.62" />
            </Array>
          </mxGeometry>
        </mxCell>
        <mxCell id="280QO5dsCk9HiFMDT0Kk-37" value="" style="shape=image;verticalLabelPosition=bottom;labelBackgroundColor=#ffffff;verticalAlign=top;aspect=fixed;imageAspect=0;image=https://scontent.xx.fbcdn.net/v/t1.15752-9/414552947_3537366129926156_9164756170146976906_n.png?stp=dst-png_s320x320&amp;_nc_cat=100&amp;ccb=1-7&amp;_nc_sid=510075&amp;_nc_ohc=Rm-WSkYMiGsAX_2zQhL&amp;_nc_ad=z-m&amp;_nc_cid=0&amp;_nc_ht=scontent.xx&amp;oh=03_AdQcIUsneFpowLa6Mb3akei_8pwu6LRyO5syDup75aF-GQ&amp;oe=65C3C155;" parent="1" vertex="1">
          <mxGeometry x="1442" y="711.75" width="152.58" height="97.76" as="geometry" />
        </mxCell>
        <mxCell id="280QO5dsCk9HiFMDT0Kk-55" value="" style="shape=image;verticalLabelPosition=bottom;labelBackgroundColor=#ffffff;verticalAlign=top;aspect=fixed;imageAspect=0;image=data:image/svg+xml,PHN2ZyB4bWxucz0iaHR0cDovL3d3dy53My5vcmcvMjAwMC9zdmciIGhlaWdodD0iNDM2Ljg5OTk2MzM3ODkwNjI1IiB2aWV3Qm94PSIxNzUuNzAwMDg4NTAwOTc2NTYgNzguMDAwMDE1MjU4Nzg5MDYgNDkwLjYwMDAzNjYyMTA5Mzc1IDQzNi44OTk5NjMzNzg5MDYyNSIgd2lkdGg9IjQ5MC42MDAwMzY2MjEwOTM3NSI+PGcgZmlsbD0iIzYxZGFmYiI+PHBhdGggZD0ibTY2Ni4zIDI5Ni41YzAtMzIuNS00MC43LTYzLjMtMTAzLjEtODIuNCAxNC40LTYzLjYgOC0xMTQuMi0yMC4yLTEzMC40LTYuNS0zLjgtMTQuMS01LjYtMjIuNC01LjZ2MjIuM2M0LjYgMCA4LjMuOSAxMS40IDIuNiAxMy42IDcuOCAxOS41IDM3LjUgMTQuOSA3NS43LTEuMSA5LjQtMi45IDE5LjMtNS4xIDI5LjQtMTkuNi00LjgtNDEtOC41LTYzLjUtMTAuOS0xMy41LTE4LjUtMjcuNS0zNS4zLTQxLjYtNTAgMzIuNi0zMC4zIDYzLjItNDYuOSA4NC00Ni45di0yMi4zYy0yNy41IDAtNjMuNSAxOS42LTk5LjkgNTMuNi0zNi40LTMzLjgtNzIuNC01My4yLTk5LjktNTMuMnYyMi4zYzIwLjcgMCA1MS40IDE2LjUgODQgNDYuNi0xNCAxNC43LTI4IDMxLjQtNDEuMyA0OS45LTIyLjYgMi40LTQ0IDYuMS02My42IDExLTIuMy0xMC00LTE5LjctNS4yLTI5LTQuNy0zOC4yIDEuMS02Ny45IDE0LjYtNzUuOCAzLTEuOCA2LjktMi42IDExLjUtMi42di0yMi4zYy04LjQgMC0xNiAxLjgtMjIuNiA1LjYtMjguMSAxNi4yLTM0LjQgNjYuNy0xOS45IDEzMC4xLTYyLjIgMTkuMi0xMDIuNyA0OS45LTEwMi43IDgyLjMgMCAzMi41IDQwLjcgNjMuMyAxMDMuMSA4Mi40LTE0LjQgNjMuNi04IDExNC4yIDIwLjIgMTMwLjQgNi41IDMuOCAxNC4xIDUuNiAyMi41IDUuNiAyNy41IDAgNjMuNS0xOS42IDk5LjktNTMuNiAzNi40IDMzLjggNzIuNCA1My4yIDk5LjkgNTMuMiA4LjQgMCAxNi0xLjggMjIuNi01LjYgMjguMS0xNi4yIDM0LjQtNjYuNyAxOS45LTEzMC4xIDYyLTE5LjEgMTAyLjUtNDkuOSAxMDIuNS04Mi4zem0tMTMwLjItNjYuN2MtMy43IDEyLjktOC4zIDI2LjItMTMuNSAzOS41LTQuMS04LTguNC0xNi0xMy4xLTI0LTQuNi04LTkuNS0xNS44LTE0LjQtMjMuNCAxNC4yIDIuMSAyNy45IDQuNyA0MSA3Ljl6bS00NS44IDEwNi41Yy03LjggMTMuNS0xNS44IDI2LjMtMjQuMSAzOC4yLTE0LjkgMS4zLTMwIDItNDUuMiAyLTE1LjEgMC0zMC4yLS43LTQ1LTEuOS04LjMtMTEuOS0xNi40LTI0LjYtMjQuMi0zOC03LjYtMTMuMS0xNC41LTI2LjQtMjAuOC0zOS44IDYuMi0xMy40IDEzLjItMjYuOCAyMC43LTM5LjkgNy44LTEzLjUgMTUuOC0yNi4zIDI0LjEtMzguMiAxNC45LTEuMyAzMC0yIDQ1LjItMiAxNS4xIDAgMzAuMi43IDQ1IDEuOSA4LjMgMTEuOSAxNi40IDI0LjYgMjQuMiAzOCA3LjYgMTMuMSAxNC41IDI2LjQgMjAuOCAzOS44LTYuMyAxMy40LTEzLjIgMjYuOC0yMC43IDM5Ljl6bTMyLjMtMTNjNS40IDEzLjQgMTAgMjYuOCAxMy44IDM5LjgtMTMuMSAzLjItMjYuOSA1LjktNDEuMiA4IDQuOS03LjcgOS44LTE1LjYgMTQuNC0yMy43IDQuNi04IDguOS0xNi4xIDEzLTI0LjF6bS0xMDEuNCAxMDYuN2MtOS4zLTkuNi0xOC42LTIwLjMtMjcuOC0zMiA5IC40IDE4LjIuNyAyNy41LjcgOS40IDAgMTguNy0uMiAyNy44LS43LTkgMTEuNy0xOC4zIDIyLjQtMjcuNSAzMnptLTc0LjQtNTguOWMtMTQuMi0yLjEtMjcuOS00LjctNDEtNy45IDMuNy0xMi45IDguMy0yNi4yIDEzLjUtMzkuNSA0LjEgOCA4LjQgMTYgMTMuMSAyNHM5LjUgMTUuOCAxNC40IDIzLjR6bTczLjktMjA4LjFjOS4zIDkuNiAxOC42IDIwLjMgMjcuOCAzMi05LS40LTE4LjItLjctMjcuNS0uNy05LjQgMC0xOC43LjItMjcuOC43IDktMTEuNyAxOC4zLTIyLjQgMjcuNS0zMnptLTc0IDU4LjljLTQuOSA3LjctOS44IDE1LjYtMTQuNCAyMy43LTQuNiA4LTguOSAxNi0xMyAyNC01LjQtMTMuNC0xMC0yNi44LTEzLjgtMzkuOCAxMy4xLTMuMSAyNi45LTUuOCA0MS4yLTcuOXptLTkwLjUgMTI1LjJjLTM1LjQtMTUuMS01OC4zLTM0LjktNTguMy01MC42czIyLjktMzUuNiA1OC4zLTUwLjZjOC42LTMuNyAxOC03IDI3LjctMTAuMSA1LjcgMTkuNiAxMy4yIDQwIDIyLjUgNjAuOS05LjIgMjAuOC0xNi42IDQxLjEtMjIuMiA2MC42LTkuOS0zLjEtMTkuMy02LjUtMjgtMTAuMnptNTMuOCAxNDIuOWMtMTMuNi03LjgtMTkuNS0zNy41LTE0LjktNzUuNyAxLjEtOS40IDIuOS0xOS4zIDUuMS0yOS40IDE5LjYgNC44IDQxIDguNSA2My41IDEwLjkgMTMuNSAxOC41IDI3LjUgMzUuMyA0MS42IDUwLTMyLjYgMzAuMy02My4yIDQ2LjktODQgNDYuOS00LjUtLjEtOC4zLTEtMTEuMy0yLjd6bTIzNy4yLTc2LjJjNC43IDM4LjItMS4xIDY3LjktMTQuNiA3NS44LTMgMS44LTYuOSAyLjYtMTEuNSAyLjYtMjAuNyAwLTUxLjQtMTYuNS04NC00Ni42IDE0LTE0LjcgMjgtMzEuNCA0MS4zLTQ5LjkgMjIuNi0yLjQgNDQtNi4xIDYzLjYtMTEgMi4zIDEwLjEgNC4xIDE5LjggNS4yIDI5LjF6bTM4LjUtNjYuN2MtOC42IDMuNy0xOCA3LTI3LjcgMTAuMS01LjctMTkuNi0xMy4yLTQwLTIyLjUtNjAuOSA5LjItMjAuOCAxNi42LTQxLjEgMjIuMi02MC42IDkuOSAzLjEgMTkuMyA2LjUgMjguMSAxMC4yIDM1LjQgMTUuMSA1OC4zIDM0LjkgNTguMyA1MC42LS4xIDE1LjctMjMgMzUuNi01OC40IDUwLjZ6Ii8+PGNpcmNsZSBjeD0iNDIwLjkiIGN5PSIyOTYuNSIgcj0iNDUuNyIvPjwvZz48L3N2Zz4=;" parent="1" vertex="1">
          <mxGeometry x="419" y="729.12" width="73" height="64.97" as="geometry" />
        </mxCell>
        <mxCell id="280QO5dsCk9HiFMDT0Kk-56" value="" style="shape=image;verticalLabelPosition=bottom;labelBackgroundColor=#ffffff;verticalAlign=top;aspect=fixed;imageAspect=0;image=data:image/svg+xml,PHN2ZyB4bWxucz0iaHR0cDovL3d3dy53My5vcmcvMjAwMC9zdmciIHZpZXdCb3g9IjMuNzQxMzc1MjA3OTAxMDAxIDEuOTk5OTk5ODgwNzkwNzEwNCAyNC41MjA2Nzc1NjY1MjgzMiAyNy45OTcxNDQ2OTkwOTY2OCIgd2lkdGg9IjI0LjUyMDY3NzU2NjUyODMyIiBoZWlnaHQ9IjI3Ljk5NzE0NDY5OTA5NjY4Ij48cGF0aCBkPSJtMTUuOTQ4IDJoLjA2NWExMC40MTggMTAuNDE4IDAgMCAxIC45NzIuNTI4cTUuNDI5IDMuMTIyIDEwLjg1OCA2LjI0NmEuNzkyLjc5MiAwIDAgMSAuNDE0Ljc4OGMtLjAwOCA0LjM4OSAwIDguNzc3LS4wMDUgMTMuMTY0YS44MTMuODEzIDAgMCAxIC0uMzU2LjUwN3EtNS43NzMgMy4zMjQtMTEuNTQ3IDYuNjQ0YS41ODcuNTg3IDAgMCAxIC0uNjU3LjAzN3EtNS43OC0zLjMxNC0xMS41NDktNi42NGEuNy43IDAgMCAxIC0uNC0uNjY2cTAtNi41ODIgMC0xMy4xNjNhLjY5My42OTMgMCAwIDEgLjM4Ny0uNjdxNS40MjItMy4xMTggMTAuODQ0LTYuMjRjLjMyMi0uMTg0LjYzOC0uMzc5Ljk3NC0uNTM1IiBmaWxsPSIjMDE5NjM5Ii8+PHBhdGggZD0ibTguNzY3IDEwLjUzOHEwIDUuNDI5IDAgMTAuODU5YTEuNTA5IDEuNTA5IDAgMCAwIC40MjcgMS4wODcgMS42NDcgMS42NDcgMCAwIDAgMi4wNi4yMDYgMS41NjQgMS41NjQgMCAwIDAgLjY4NS0xLjI5M2MwLTIuNjItLjAwNS01LjI0IDAtNy44NnEzLjU4MyA0LjI5IDcuMTgxIDguNTY4YTIuODMzIDIuODMzIDAgMCAwIDIuNi43ODIgMS41NjEgMS41NjEgMCAwIDAgMS4yNTEtMS4zNzFxLjAwOC01LjU0MSAwLTExLjA4MWExLjU4MiAxLjU4MiAwIDAgMCAtMy4xNTIgMGMwIDIuNjYyLS4wMTYgNS4zMjEgMCA3Ljk4Mi0yLjM0Ni0yLjc2Ni00LjY2My01LjU1Ni03LTguMzMyYTIuODE3IDIuODE3IDAgMCAwIC0yLjY0OS0xLjA1MiAxLjU3OSAxLjU3OSAwIDAgMCAtMS40MDMgMS41MDV6IiBmaWxsPSIjZmZmIi8+PC9zdmc+;" parent="1" vertex="1">
          <mxGeometry x="585.8599999999999" y="726.49" width="56.27" height="63.02" as="geometry" />
        </mxCell>
        <mxCell id="280QO5dsCk9HiFMDT0Kk-57" value="&lt;font color=&quot;#232f3e&quot; face=&quot;Comic Sans MS&quot;&gt;&lt;span style=&quot;font-size: 16px&quot;&gt;&lt;b&gt;NGINX&lt;/b&gt;&lt;/span&gt;&lt;/font&gt;" style="text;html=1;align=center;verticalAlign=middle;resizable=0;points=[];autosize=1;strokeColor=none;" parent="1" vertex="1">
          <mxGeometry x="579" y="789.5100000000002" width="70" height="20" as="geometry" />
        </mxCell>
        <mxCell id="280QO5dsCk9HiFMDT0Kk-58" value="&lt;font face=&quot;Comic Sans MS&quot;&gt;&lt;span style=&quot;font-size: 18px&quot;&gt;&lt;b&gt;Database Server&lt;/b&gt;&lt;/span&gt;&lt;/font&gt;" style="points=[[0,0],[0.25,0],[0.5,0],[0.75,0],[1,0],[1,0.25],[1,0.5],[1,0.75],[1,1],[0.75,1],[0.5,1],[0.25,1],[0,1],[0,0.75],[0,0.5],[0,0.25]];outlineConnect=0;gradientColor=none;html=1;whiteSpace=wrap;fontSize=16;fontStyle=0;shape=mxgraph.aws4.group;grIcon=mxgraph.aws4.group_on_premise;strokeColor=#5A6C86;fillColor=none;verticalAlign=top;align=left;spacingLeft=30;fontColor=#5A6C86;dashed=0;" parent="1" vertex="1">
          <mxGeometry x="569" y="688" width="480" height="130" as="geometry" />
        </mxCell>
        <mxCell id="280QO5dsCk9HiFMDT0Kk-59" value="" style="shape=image;verticalLabelPosition=bottom;labelBackgroundColor=#ffffff;verticalAlign=top;aspect=fixed;imageAspect=0;image=https://scontent.fjrs4-1.fna.fbcdn.net/v/t1.15752-9/414510619_2529180610577428_1477236704667933988_n.png?_nc_cat=105&amp;ccb=1-7&amp;_nc_sid=8cd0a2&amp;_nc_ohc=Jhg8gtCNc-AAX9JH8Pd&amp;_nc_ht=scontent.fjrs4-1.fna&amp;oh=03_AdRYTAvDuk65V-RimkVixrOShBAlVFy2Ob1ioCF5pau4Uw&amp;oe=65C39602;" parent="1" vertex="1">
          <mxGeometry x="689" y="741.63" width="173.27" height="37.99" as="geometry" />
        </mxCell>
        <mxCell id="280QO5dsCk9HiFMDT0Kk-60" value="" style="edgeStyle=orthogonalEdgeStyle;html=1;endArrow=block;elbow=vertical;startArrow=block;startFill=1;endFill=1;strokeColor=#545B64;rounded=0;" parent="1" edge="1">
          <mxGeometry width="100" relative="1" as="geometry">
            <mxPoint x="649" y="761.6199999999999" as="sourcePoint" />
            <mxPoint x="679" y="761.6199999999999" as="targetPoint" />
            <Array as="points" />
          </mxGeometry>
        </mxCell>
        <mxCell id="280QO5dsCk9HiFMDT0Kk-61" value="" style="edgeStyle=orthogonalEdgeStyle;html=1;endArrow=block;elbow=vertical;startArrow=block;startFill=1;endFill=1;strokeColor=#545B64;rounded=0;" parent="1" edge="1">
          <mxGeometry width="100" relative="1" as="geometry">
            <mxPoint x="872.2699999999995" y="761.6199999999999" as="sourcePoint" />
            <mxPoint x="912.2699999999995" y="761.6199999999999" as="targetPoint" />
            <Array as="points">
              <mxPoint x="902.27" y="761.62" />
              <mxPoint x="902.27" y="761.62" />
            </Array>
          </mxGeometry>
        </mxCell>
        <mxCell id="280QO5dsCk9HiFMDT0Kk-62" value="" style="shape=image;verticalLabelPosition=bottom;labelBackgroundColor=#ffffff;verticalAlign=top;aspect=fixed;imageAspect=0;image=https://scontent.xx.fbcdn.net/v/t1.15752-9/414552947_3537366129926156_9164756170146976906_n.png?stp=dst-png_s320x320&amp;_nc_cat=100&amp;ccb=1-7&amp;_nc_sid=510075&amp;_nc_ohc=Rm-WSkYMiGsAX_2zQhL&amp;_nc_ad=z-m&amp;_nc_cid=0&amp;_nc_ht=scontent.xx&amp;oh=03_AdQcIUsneFpowLa6Mb3akei_8pwu6LRyO5syDup75aF-GQ&amp;oe=65C3C155;" parent="1" vertex="1">
          <mxGeometry x="899" y="711.75" width="152.58" height="97.76" as="geometry" />
        </mxCell>
        <mxCell id="280QO5dsCk9HiFMDT0Kk-63" value="" style="shape=image;verticalLabelPosition=bottom;labelBackgroundColor=#ffffff;verticalAlign=top;aspect=fixed;imageAspect=0;image=data:image/svg+xml,PHN2ZyB4bWxucz0iaHR0cDovL3d3dy53My5vcmcvMjAwMC9zdmciIHZpZXdCb3g9IjMuNzQxMzc1MjA3OTAxMDAxIDEuOTk5OTk5ODgwNzkwNzEwNCAyNC41MjA2Nzc1NjY1MjgzMiAyNy45OTcxNDQ2OTkwOTY2OCIgd2lkdGg9IjI0LjUyMDY3NzU2NjUyODMyIiBoZWlnaHQ9IjI3Ljk5NzE0NDY5OTA5NjY4Ij48cGF0aCBkPSJtMTUuOTQ4IDJoLjA2NWExMC40MTggMTAuNDE4IDAgMCAxIC45NzIuNTI4cTUuNDI5IDMuMTIyIDEwLjg1OCA2LjI0NmEuNzkyLjc5MiAwIDAgMSAuNDE0Ljc4OGMtLjAwOCA0LjM4OSAwIDguNzc3LS4wMDUgMTMuMTY0YS44MTMuODEzIDAgMCAxIC0uMzU2LjUwN3EtNS43NzMgMy4zMjQtMTEuNTQ3IDYuNjQ0YS41ODcuNTg3IDAgMCAxIC0uNjU3LjAzN3EtNS43OC0zLjMxNC0xMS41NDktNi42NGEuNy43IDAgMCAxIC0uNC0uNjY2cTAtNi41ODIgMC0xMy4xNjNhLjY5My42OTMgMCAwIDEgLjM4Ny0uNjdxNS40MjItMy4xMTggMTAuODQ0LTYuMjRjLjMyMi0uMTg0LjYzOC0uMzc5Ljk3NC0uNTM1IiBmaWxsPSIjMDE5NjM5Ii8+PHBhdGggZD0ibTguNzY3IDEwLjUzOHEwIDUuNDI5IDAgMTAuODU5YTEuNTA5IDEuNTA5IDAgMCAwIC40MjcgMS4wODcgMS42NDcgMS42NDcgMCAwIDAgMi4wNi4yMDYgMS41NjQgMS41NjQgMCAwIDAgLjY4NS0xLjI5M2MwLTIuNjItLjAwNS01LjI0IDAtNy44NnEzLjU4MyA0LjI5IDcuMTgxIDguNTY4YTIuODMzIDIuODMzIDAgMCAwIDIuNi43ODIgMS41NjEgMS41NjEgMCAwIDAgMS4yNTEtMS4zNzFxLjAwOC01LjU0MSAwLTExLjA4MWExLjU4MiAxLjU4MiAwIDAgMCAtMy4xNTIgMGMwIDIuNjYyLS4wMTYgNS4zMjEgMCA3Ljk4Mi0yLjM0Ni0yLjc2Ni00LjY2My01LjU1Ni03LTguMzMyYTIuODE3IDIuODE3IDAgMCAwIC0yLjY0OS0xLjA1MiAxLjU3OSAxLjU3OSAwIDAgMCAtMS40MDMgMS41MDV6IiBmaWxsPSIjZmZmIi8+PC9zdmc+;" parent="1" vertex="1">
          <mxGeometry x="287.7199999999999" y="729.12" width="56.27" height="63.02" as="geometry" />
        </mxCell>
        <mxCell id="280QO5dsCk9HiFMDT0Kk-64" value="&lt;font color=&quot;#232f3e&quot; face=&quot;Comic Sans MS&quot;&gt;&lt;span style=&quot;font-size: 16px&quot;&gt;&lt;b&gt;NGINX&lt;/b&gt;&lt;/span&gt;&lt;/font&gt;" style="text;html=1;align=center;verticalAlign=middle;resizable=0;points=[];autosize=1;strokeColor=none;" parent="1" vertex="1">
          <mxGeometry x="280.85" y="794.0900000000003" width="70" height="20" as="geometry" />
        </mxCell>
        <mxCell id="280QO5dsCk9HiFMDT0Kk-75" value="" style="edgeStyle=orthogonalEdgeStyle;rounded=0;orthogonalLoop=1;jettySize=auto;html=1;" parent="1" source="280QO5dsCk9HiFMDT0Kk-65" target="280QO5dsCk9HiFMDT0Kk-58" edge="1">
          <mxGeometry relative="1" as="geometry" />
        </mxCell>
        <mxCell id="280QO5dsCk9HiFMDT0Kk-65" value="&lt;font face=&quot;Comic Sans MS&quot;&gt;&lt;span style=&quot;font-size: 18px&quot;&gt;&lt;b&gt;Frontend Server&lt;/b&gt;&lt;/span&gt;&lt;/font&gt;" style="points=[[0,0],[0.25,0],[0.5,0],[0.75,0],[1,0],[1,0.25],[1,0.5],[1,0.75],[1,1],[0.75,1],[0.5,1],[0.25,1],[0,1],[0,0.75],[0,0.5],[0,0.25]];outlineConnect=0;gradientColor=none;html=1;whiteSpace=wrap;fontSize=16;fontStyle=0;shape=mxgraph.aws4.group;grIcon=mxgraph.aws4.group_on_premise;strokeColor=#5A6C86;fillColor=none;verticalAlign=top;align=left;spacingLeft=30;fontColor=#5A6C86;dashed=0;" parent="1" vertex="1">
          <mxGeometry x="269" y="688" width="240" height="130" as="geometry" />
        </mxCell>
        <mxCell id="280QO5dsCk9HiFMDT0Kk-71" value="" style="edgeStyle=orthogonalEdgeStyle;html=1;endArrow=block;elbow=vertical;startArrow=block;startFill=1;endFill=1;strokeColor=#545B64;rounded=0;" parent="1" edge="1">
          <mxGeometry width="100" relative="1" as="geometry">
            <mxPoint x="345.5" y="760.29" as="sourcePoint" />
            <mxPoint x="410.5" y="760.29" as="targetPoint" />
            <Array as="points">
              <mxPoint x="410.5" y="760.29" />
            </Array>
          </mxGeometry>
        </mxCell>
        <mxCell id="280QO5dsCk9HiFMDT0Kk-73" value="&lt;font color=&quot;#232f3e&quot; face=&quot;Comic Sans MS&quot;&gt;&lt;span style=&quot;font-size: 16px&quot;&gt;&lt;b&gt;React JS&lt;/b&gt;&lt;/span&gt;&lt;/font&gt;" style="text;html=1;align=center;verticalAlign=middle;resizable=0;points=[];autosize=1;strokeColor=none;" parent="1" vertex="1">
          <mxGeometry x="410.5" y="794.0900000000003" width="90" height="20" as="geometry" />
        </mxCell>
        <mxCell id="280QO5dsCk9HiFMDT0Kk-74" value="" style="edgeStyle=orthogonalEdgeStyle;html=1;endArrow=block;elbow=vertical;startArrow=block;startFill=1;endFill=1;strokeColor=#545B64;rounded=0;exitX=0;exitY=0.5;exitDx=0;exitDy=0;entryX=1;entryY=0.5;entryDx=0;entryDy=0;" parent="1" source="280QO5dsCk9HiFMDT0Kk-58" target="280QO5dsCk9HiFMDT0Kk-65" edge="1">
          <mxGeometry width="100" relative="1" as="geometry">
            <mxPoint x="549" y="968" as="sourcePoint" />
            <mxPoint x="589" y="968" as="targetPoint" />
          </mxGeometry>
        </mxCell>
        <mxCell id="280QO5dsCk9HiFMDT0Kk-76" value="" style="edgeStyle=orthogonalEdgeStyle;html=1;endArrow=block;elbow=vertical;startArrow=block;startFill=1;endFill=1;strokeColor=#545B64;rounded=0;entryX=0;entryY=0.5;entryDx=0;entryDy=0;" parent="1" source="280QO5dsCk9HiFMDT0Kk-58" target="280QO5dsCk9HiFMDT0Kk-16" edge="1">
          <mxGeometry width="100" relative="1" as="geometry">
            <mxPoint x="1099" y="878" as="sourcePoint" />
            <mxPoint x="969" y="788" as="targetPoint" />
          </mxGeometry>
        </mxCell>
        <mxCell id="280QO5dsCk9HiFMDT0Kk-77" value="" style="aspect=fixed;html=1;points=[];align=center;image;fontSize=12;image=img/lib/mscae/Docker.svg;" parent="1" vertex="1">
          <mxGeometry x="568.26" y="608" width="91.46" height="75" as="geometry" />
        </mxCell>
        <mxCell id="280QO5dsCk9HiFMDT0Kk-78" value="" style="aspect=fixed;html=1;points=[];align=center;image;fontSize=12;image=img/lib/mscae/Docker.svg;" parent="1" vertex="1">
          <mxGeometry x="270.03999999999996" y="608" width="91.46" height="75" as="geometry" />
        </mxCell>
        <mxCell id="280QO5dsCk9HiFMDT0Kk-79" value="" style="edgeStyle=orthogonalEdgeStyle;html=1;endArrow=block;elbow=vertical;startArrow=block;startFill=1;endFill=1;strokeColor=#545B64;rounded=0;" parent="1" target="ThuujIJxyk_KjAQ5E6HR-5" edge="1">
          <mxGeometry width="100" relative="1" as="geometry">
            <mxPoint x="809" y="420" as="sourcePoint" />
            <mxPoint x="819" y="628" as="targetPoint" />
            <Array as="points" />
          </mxGeometry>
        </mxCell>
        <mxCell id="280QO5dsCk9HiFMDT0Kk-84" value="" style="edgeStyle=orthogonalEdgeStyle;html=1;endArrow=block;elbow=vertical;startArrow=block;startFill=1;endFill=1;strokeColor=#545B64;rounded=0;entryX=0.5;entryY=0;entryDx=0;entryDy=0;entryPerimeter=0;" parent="1" target="ThuujIJxyk_KjAQ5E6HR-9" edge="1">
          <mxGeometry width="100" relative="1" as="geometry">
            <mxPoint x="809" y="890" as="sourcePoint" />
            <mxPoint x="1189" y="828" as="targetPoint" />
          </mxGeometry>
        </mxCell>
        <mxCell id="280QO5dsCk9HiFMDT0Kk-88" value="&lt;font style=&quot;font-size: 16px&quot; face=&quot;Comic Sans MS&quot;&gt;&lt;b&gt;Client&lt;/b&gt;&lt;/font&gt;" style="outlineConnect=0;gradientColor=none;fontColor=#545B64;strokeColor=#000000;fillColor=#000000;dashed=0;verticalLabelPosition=bottom;verticalAlign=top;align=center;html=1;fontSize=12;fontStyle=0;aspect=fixed;shape=mxgraph.aws4.illustration_devices;pointerEvents=1" parent="1" vertex="1">
          <mxGeometry x="9" y="705.88" width="142.81" height="104.25" as="geometry" />
        </mxCell>
        <mxCell id="280QO5dsCk9HiFMDT0Kk-89" value="" style="edgeStyle=orthogonalEdgeStyle;html=1;endArrow=block;elbow=vertical;startArrow=block;startFill=1;endFill=1;strokeColor=#545B64;rounded=0;" parent="1" source="280QO5dsCk9HiFMDT0Kk-88" edge="1">
          <mxGeometry width="100" relative="1" as="geometry">
            <mxPoint x="159" y="756" as="sourcePoint" />
            <mxPoint x="210" y="756" as="targetPoint" />
            <Array as="points">
              <mxPoint x="199" y="756" />
            </Array>
          </mxGeometry>
        </mxCell>
        <mxCell id="qRDbbFoDtflvOVHdTTsF-1" value="" style="edgeStyle=orthogonalEdgeStyle;html=1;endArrow=block;elbow=vertical;startArrow=block;startFill=1;endFill=1;strokeColor=#545B64;rounded=0;" edge="1" parent="1">
          <mxGeometry width="100" relative="1" as="geometry">
            <mxPoint x="809" y="850" as="sourcePoint" />
            <mxPoint x="809" y="886" as="targetPoint" />
            <Array as="points">
              <mxPoint x="809" y="851" />
              <mxPoint x="809" y="851" />
            </Array>
          </mxGeometry>
        </mxCell>
        <mxCell id="qRDbbFoDtflvOVHdTTsF-4" value="" style="edgeStyle=orthogonalEdgeStyle;html=1;endArrow=block;elbow=vertical;startArrow=block;startFill=1;endFill=1;strokeColor=#545B64;rounded=0;exitX=0.506;exitY=-0.014;exitDx=0;exitDy=0;exitPerimeter=0;entryX=0.42;entryY=0.01;entryDx=0;entryDy=0;entryPerimeter=0;" edge="1" parent="1">
          <mxGeometry width="100" relative="1" as="geometry">
            <mxPoint x="809.8799999999999" y="686.1800000000001" as="sourcePoint" />
            <mxPoint x="809.2" y="577.7" as="targetPoint" />
            <Array as="points" />
          </mxGeometry>
        </mxCell>
        <mxCell id="qRDbbFoDtflvOVHdTTsF-5" value="" style="edgeStyle=orthogonalEdgeStyle;html=1;endArrow=block;elbow=vertical;startArrow=block;startFill=1;endFill=1;strokeColor=#545B64;rounded=0;" edge="1" parent="1">
          <mxGeometry width="100" relative="1" as="geometry">
            <mxPoint x="809" y="818" as="sourcePoint" />
            <mxPoint x="809" y="850" as="targetPoint" />
            <Array as="points">
              <mxPoint x="809" y="828" />
              <mxPoint x="809" y="828" />
            </Array>
          </mxGeometry>
        </mxCell>
        <mxCell id="qRDbbFoDtflvOVHdTTsF-8" value="" style="edgeStyle=orthogonalEdgeStyle;html=1;endArrow=block;elbow=vertical;startArrow=block;startFill=1;endFill=1;strokeColor=#545B64;rounded=0;" edge="1" parent="1">
          <mxGeometry width="100" relative="1" as="geometry">
            <mxPoint x="215" y="756" as="sourcePoint" />
            <mxPoint x="240" y="756" as="targetPoint" />
            <Array as="points">
              <mxPoint x="234" y="756" />
            </Array>
          </mxGeometry>
        </mxCell>
        <mxCell id="qRDbbFoDtflvOVHdTTsF-9" value="" style="edgeStyle=orthogonalEdgeStyle;html=1;endArrow=block;elbow=vertical;startArrow=block;startFill=1;endFill=1;strokeColor=#545B64;rounded=0;" edge="1" parent="1">
          <mxGeometry width="100" relative="1" as="geometry">
            <mxPoint x="242" y="756" as="sourcePoint" />
            <mxPoint x="267" y="756" as="targetPoint" />
            <Array as="points">
              <mxPoint x="261" y="756" />
            </Array>
          </mxGeometry>
        </mxCell>
        <mxCell id="qRDbbFoDtflvOVHdTTsF-10" value="" style="edgeStyle=orthogonalEdgeStyle;html=1;endArrow=block;elbow=vertical;startArrow=block;startFill=1;endFill=1;strokeColor=#545B64;rounded=0;exitX=0.416;exitY=-0.013;exitDx=0;exitDy=0;exitPerimeter=0;" edge="1" parent="1">
          <mxGeometry width="100" relative="1" as="geometry">
            <mxPoint x="809.5039999999999" y="576.4899999999999" as="sourcePoint" />
            <mxPoint x="809" y="421" as="targetPoint" />
            <Array as="points" />
          </mxGeometry>
        </mxCell>
      </root>
    </mxGraphModel>
  </diagram>
</mxfile>
